<svg width="51" height="50" viewBox="0 0 51 50" fill="none" xmlns="http://www.w3.org/2000/svg">
<g clip-path="url(#clip0_104_55)">
<path fill-rule="evenodd" clip-rule="evenodd" d="M3.125 9.375C3.125 7.7174 3.78348 6.12769 4.95558 4.95558C6.12769 3.78348 7.7174 3.125 9.375 3.125H12.2333C14.025 3.125 15.5875 4.34583 16.0229 6.08333L18.325 15.2979C18.5115 16.0437 18.4739 16.828 18.2167 17.5525C17.9595 18.2771 17.4942 18.9096 16.8792 19.3708L14.1854 21.3917C13.9042 21.6021 13.8438 21.9104 13.9229 22.125C15.0987 25.3226 16.9554 28.2265 19.3645 30.6355C21.7735 33.0446 24.6774 34.9013 27.875 36.0771C28.0896 36.1562 28.3958 36.0958 28.6083 35.8146L30.6292 33.1208C31.0904 32.5058 31.7229 32.0405 32.4475 31.7833C33.172 31.5261 33.9563 31.4884 34.7021 31.675L43.9167 33.9771C45.6542 34.4125 46.875 35.975 46.875 37.7687V40.625C46.875 42.2826 46.2165 43.8723 45.0444 45.0444C43.8723 46.2165 42.2826 46.875 40.625 46.875H35.9375C17.8167 46.875 3.125 32.1833 3.125 14.0625V9.375Z" fill="black"/>
</g>
<defs>
<clipPath id="clip0_104_55">
<rect width="50.08" height="49.7561" fill="white"/>
</clipPath>
</defs>
</svg>
