<svg width="50" height="40" viewBox="0 0 50 40" fill="none" xmlns="http://www.w3.org/2000/svg">
<g clip-path="url(#clip0_104_48)">
<path d="M3.125 13.0625V30.9375C3.125 32.5951 3.78348 34.1848 4.95558 35.3569C6.12769 36.529 7.7174 37.1875 9.375 37.1875H40.625C42.2826 37.1875 43.8723 36.529 45.0444 35.3569C46.2165 34.1848 46.875 32.5951 46.875 30.9375V13.0625L28.275 24.5062C27.2901 25.1122 26.1564 25.433 25 25.433C23.8436 25.433 22.7099 25.1122 21.725 24.5062L3.125 13.0625Z" fill="black"/>
<path d="M46.875 9.39167V9.0625C46.875 7.4049 46.2165 5.81519 45.0444 4.64308C43.8723 3.47098 42.2826 2.8125 40.625 2.8125H9.375C7.7174 2.8125 6.12769 3.47098 4.95558 4.64308C3.78348 5.81519 3.125 7.4049 3.125 9.0625V9.39167L23.3625 21.8458C23.855 22.1488 24.4218 22.3092 25 22.3092C25.5782 22.3092 26.145 22.1488 26.6375 21.8458L46.875 9.39167Z" fill="black"/>
</g>
<defs>
<clipPath id="clip0_104_48">
<rect width="50" height="40" fill="white"/>
</clipPath>
</defs>
</svg>
