<svg width="77" height="80" viewBox="0 0 77 80" fill="none" xmlns="http://www.w3.org/2000/svg">
<path d="M66.4959 27.7341C66.4641 25.212 66.0171 22.715 65.1749 20.3547C64.4446 18.3638 63.3291 16.5558 61.8997 15.046C60.4704 13.5363 58.7586 12.3581 56.8737 11.5867C54.6679 10.712 52.3375 10.2391 49.9819 10.188C46.9489 10.0448 45.9873 10.0049 38.2884 10.0049C30.5894 10.0049 29.6026 10.0049 26.5917 10.188C24.2371 10.2395 21.9079 10.7124 19.703 11.5867C17.8178 12.3575 16.1058 13.5356 14.6764 15.0454C13.247 16.5552 12.1317 18.3635 11.4018 20.3547C10.5721 22.6829 10.1254 25.1437 10.0809 27.6309C9.94528 30.8377 9.9043 31.8534 9.9043 39.9854C9.9043 48.1174 9.9043 49.1564 10.0809 52.3399C10.1281 54.8308 10.5727 57.2884 11.4018 59.6227C12.1329 61.6133 13.249 63.4209 14.6789 64.9301C16.1088 66.4393 17.821 67.6168 19.7061 68.3875C21.905 69.2972 24.2347 69.804 26.5949 69.886C29.631 70.0292 30.5925 70.0725 38.2915 70.0725C45.9905 70.0725 46.9773 70.0725 49.9882 69.886C52.3437 69.837 54.6743 69.3652 56.88 68.4907C58.7644 67.7184 60.4758 66.5399 61.905 65.0302C63.3342 63.5206 64.45 61.713 65.1812 59.7226C66.0104 57.3916 66.4549 54.934 66.5022 52.4398C66.6378 49.2363 66.6787 48.2206 66.6787 40.0853C66.6724 31.9533 66.6724 30.921 66.4959 27.7341ZM38.2695 55.3636C30.2174 55.3636 23.6944 48.4737 23.6944 39.9687C23.6944 31.4638 30.2174 24.5739 38.2695 24.5739C42.135 24.5739 45.8422 26.1958 48.5756 29.0829C51.309 31.97 52.8445 35.8858 52.8445 39.9687C52.8445 44.0517 51.309 47.9675 48.5756 50.8545C45.8422 53.7416 42.135 55.3636 38.2695 55.3636ZM53.4246 27.5942C52.9782 27.5947 52.5361 27.5021 52.1236 27.3219C51.711 27.1416 51.3362 26.8772 51.0205 26.5438C50.7048 26.2104 50.4545 25.8145 50.2839 25.3787C50.1132 24.943 50.0256 24.476 50.026 24.0044C50.026 23.5332 50.1139 23.0667 50.2846 22.6313C50.4553 22.196 50.7055 21.8004 51.021 21.4672C51.3364 21.1341 51.7109 20.8698 52.1231 20.6894C52.5352 20.5091 52.977 20.4163 53.4231 20.4163C53.8692 20.4163 54.3109 20.5091 54.7231 20.6894C55.1352 20.8698 55.5097 21.1341 55.8252 21.4672C56.1406 21.8004 56.3908 22.196 56.5616 22.6313C56.7323 23.0667 56.8201 23.5332 56.8201 24.0044C56.8201 25.9892 55.3005 27.5942 53.4246 27.5942Z" fill="black"/>
<path d="M38.2694 49.9691C43.4983 49.9691 47.7371 45.4919 47.7371 39.9689C47.7371 34.446 43.4983 29.9688 38.2694 29.9688C33.0406 29.9688 28.8018 34.446 28.8018 39.9689C28.8018 45.4919 33.0406 49.9691 38.2694 49.9691Z" fill="black"/>
</svg>
