<svg width="41" height="37" viewBox="0 0 41 37" fill="none" xmlns="http://www.w3.org/2000/svg">
<path fill-rule="evenodd" clip-rule="evenodd" d="M0 18.4601C0 8.57672 9.09375 0.56543 20.3125 0.56543C31.5312 0.56543 40.625 8.57672 40.625 18.4601C40.625 28.3434 31.5312 36.3547 20.3125 36.3547C9.09375 36.3547 0 28.3434 0 18.4601ZM23.7042 11.271C21.85 9.84495 18.775 9.84495 16.9229 11.271C16.611 11.5115 16.2035 11.6329 15.7899 11.6087C15.3763 11.5844 14.9907 11.4164 14.7177 11.1416C14.4448 10.8668 14.3069 10.5078 14.3344 10.1435C14.362 9.77914 14.5527 9.43937 14.8646 9.1989C17.8937 6.86434 22.7312 6.86434 25.7604 9.1989C28.9125 11.6289 28.9125 15.6557 25.7604 18.0857C25.2333 18.4906 24.6468 18.8314 24.0167 19.0988C22.6083 19.7008 21.875 20.5193 21.875 21.2131V22.5896C21.875 22.9547 21.7104 23.3048 21.4174 23.5629C21.1243 23.8211 20.7269 23.9661 20.3125 23.9661C19.8981 23.9661 19.5007 23.8211 19.2076 23.5629C18.9146 23.3048 18.75 22.9547 18.75 22.5896V21.2131C18.75 18.8657 20.9583 17.346 22.6562 16.6211C23.0354 16.4595 23.3875 16.2558 23.7042 16.0136C25.4333 14.6793 25.4333 12.6053 23.7042 11.271ZM20.3125 29.4722C20.7269 29.4722 21.1243 29.3271 21.4174 29.069C21.7104 28.8108 21.875 28.4607 21.875 28.0956C21.875 27.7306 21.7104 27.3805 21.4174 27.1223C21.1243 26.8642 20.7269 26.7191 20.3125 26.7191C19.8981 26.7191 19.5007 26.8642 19.2076 27.1223C18.9146 27.3805 18.75 27.7306 18.75 28.0956C18.75 28.4607 18.9146 28.8108 19.2076 29.069C19.5007 29.3271 19.8981 29.4722 20.3125 29.4722Z" fill="black"/>
</svg>
